<svg width="102" height="25" viewBox="0 0 102 25" fill="none" xmlns="http://www.w3.org/2000/svg">
<path d="M6.39859 14.853C6.39859 15.5425 6.42654 16.0644 6.48246 16.4185C6.557 16.754 6.68747 16.9776 6.87384 17.0894C7.06021 17.2013 7.32113 17.2665 7.6566 17.2851V17.9281H0.947187V17.2851C1.26402 17.2665 1.51562 17.2013 1.702 17.0894C1.88837 16.9776 2.01883 16.754 2.09338 16.4185C2.16793 16.0644 2.2052 15.5425 2.2052 14.853V4.44404C2.2052 4.16448 2.14929 3.97811 2.03747 3.88492C1.94428 3.79174 1.79518 3.74514 1.59017 3.74514C1.44108 3.74514 1.27334 3.76378 1.08697 3.80105C0.919232 3.83833 0.732859 3.89424 0.527849 3.96879L0.248291 3.3258L6.34268 0.502258L6.51041 0.669993C6.49178 0.949551 6.46382 1.38753 6.42654 1.98392C6.40791 2.56168 6.39859 3.29785 6.39859 4.19244V11.4703H6.4545L9.97694 7.83602C10.2379 7.5751 10.4336 7.36077 10.564 7.19304C10.6945 7.00667 10.7597 6.82029 10.7597 6.63392C10.7597 6.46618 10.6852 6.27981 10.5361 6.0748C10.4056 5.86979 10.0608 5.74865 9.50169 5.71138V5.06839H15.1488V5.71138C14.5897 5.74865 14.0771 5.91638 13.6112 6.21458C13.1453 6.51278 12.7353 6.83893 12.3812 7.19304L10.7597 8.87039L13.9187 15.0486C14.366 15.9246 14.7481 16.521 15.0649 16.8378C15.4004 17.136 15.7265 17.2851 16.0434 17.2851V17.9281C15.4283 18.2077 14.6922 18.3474 13.8349 18.3474C12.8844 18.3474 12.0643 18.1518 11.3747 17.7604C10.7038 17.369 10.2006 16.8471 9.86512 16.1948L7.71252 12.0015L6.39859 13.3433V14.853Z" fill="#2C3300"/>
<path d="M21.6075 18.3474C20.3401 18.3474 19.1846 18.0772 18.1409 17.5367C17.1159 16.9962 16.2959 16.2228 15.6808 15.2164C15.0844 14.21 14.7862 13.0172 14.7862 11.638C14.7862 10.147 15.1217 8.87971 15.7926 7.83602C16.4636 6.79234 17.3489 6.00025 18.4485 5.45977C19.5667 4.91929 20.7595 4.64905 22.0268 4.64905C23.7414 4.64905 25.0367 5.11498 25.9127 6.04685C26.8073 6.96007 27.2546 8.16218 27.2546 9.65316L19.0076 10.6875C19.1194 12.2717 19.5853 13.4086 20.4054 14.0981C21.2254 14.7877 22.1759 15.1325 23.2569 15.1325C23.7974 15.1325 24.4124 15.0393 25.102 14.853C25.7915 14.6479 26.4159 14.2845 26.975 13.7627L27.4223 14.21C26.9005 15.4587 26.1829 16.4651 25.2697 17.2292C24.3751 17.9747 23.1544 18.3474 21.6075 18.3474ZM21.1881 5.85115C20.5545 5.85115 20.0419 6.18663 19.6506 6.85757C19.2592 7.50987 19.0355 8.41378 18.9796 9.56929L23.0332 9.06608C22.996 8.19013 22.8375 7.43532 22.558 6.80166C22.2971 6.16799 21.8404 5.85115 21.1881 5.85115Z" fill="#2C3300"/>
<path d="M41.817 14.853C41.817 15.5425 41.8636 16.0644 41.9568 16.4185C42.0499 16.754 42.2177 16.9776 42.46 17.0894C42.7022 17.2013 43.047 17.2665 43.4943 17.2851V17.9281H36.3656V17.2851C36.6824 17.2665 36.934 17.2013 37.1204 17.0894C37.3068 16.9776 37.4372 16.754 37.5118 16.4185C37.5863 16.0644 37.6236 15.5425 37.6236 14.853V9.28973C37.6236 8.74925 37.5397 8.31127 37.372 7.9758C37.2042 7.6217 36.7942 7.44464 36.1419 7.44464C35.7878 7.44464 35.3871 7.50055 34.9398 7.61238C34.5112 7.7242 34.008 7.96648 33.4302 8.33923V14.853C33.4302 15.5425 33.4768 16.0644 33.57 16.4185C33.6632 16.754 33.8309 16.9776 34.0732 17.0894C34.3155 17.2013 34.6603 17.2665 35.1076 17.2851V17.9281H27.9788V17.2851C28.2956 17.2665 28.5472 17.2013 28.7336 17.0894C28.92 16.9776 29.0504 16.754 29.125 16.4185C29.1995 16.0644 29.2368 15.5425 29.2368 14.853V8.4231C29.2368 8.14354 29.1809 7.95717 29.0691 7.86398C28.9759 7.77079 28.8268 7.7242 28.6218 7.7242C28.3981 7.7242 28.1372 7.76147 27.839 7.83602L27.5595 7.19304L33.3743 4.48131L33.542 4.64905C33.5048 4.81679 33.4582 5.17089 33.4022 5.71138C33.365 6.25186 33.3463 6.80166 33.3463 7.36077H33.4302C33.8029 6.93212 34.2409 6.51278 34.7441 6.10276C35.2473 5.69274 35.8065 5.34795 36.4215 5.06839C37.0551 4.78883 37.7354 4.64905 38.4623 4.64905C39.6178 4.64905 40.4658 4.92861 41.0063 5.48773C41.5467 6.02821 41.817 6.90416 41.817 8.11558V14.853Z" fill="#2C3300"/>
<path d="M47.0519 18.3474C46.0269 18.3474 45.2628 18.0399 44.7595 17.4249C44.275 16.8099 44.0327 16.1017 44.0327 15.3003C44.0327 14.0702 44.5918 13.0731 45.71 12.309C46.8469 11.5448 48.5988 10.8459 50.9658 10.2123V8.73061C50.9658 7.85466 50.7794 7.23031 50.4066 6.85757C50.0525 6.46618 49.5493 6.27049 48.897 6.27049C48.0024 6.27049 47.2569 6.60596 46.6605 7.27691C46.0828 7.94785 45.6821 8.85175 45.4584 9.98863H44.8155V5.96298C45.4491 5.64614 46.2692 5.34795 47.2756 5.06839C48.3006 4.78883 49.4095 4.64905 50.6023 4.64905C53.8266 4.64905 55.4387 5.89775 55.4387 8.39514V14.4895C55.4387 14.9182 55.4946 15.2537 55.6064 15.4959C55.7183 15.7196 55.9419 15.8314 56.2774 15.8314C56.4638 15.8314 56.6688 15.7941 56.8924 15.7196C57.1347 15.6264 57.3863 15.4587 57.6472 15.2164L58.0945 15.6637C57.6845 16.521 57.144 17.164 56.4731 17.5926C55.8021 18.0027 55.038 18.2077 54.1807 18.2077C53.2675 18.2077 52.5592 18.0306 52.056 17.6765C51.5715 17.3038 51.2267 16.7726 51.0217 16.083H50.9658C50.5371 16.8285 49.9687 17.3969 49.2604 17.7883C48.5522 18.1611 47.8161 18.3474 47.0519 18.3474ZM49.2325 15.8314C49.6052 15.8314 49.9314 15.7475 50.2109 15.5798C50.5091 15.3934 50.7607 15.1884 50.9658 14.9648V11.3305C50.1084 11.5728 49.4561 11.8896 49.0088 12.281C48.5802 12.6724 48.2913 13.0638 48.1422 13.4552C48.0117 13.8465 47.9465 14.1727 47.9465 14.4336C47.9465 14.825 48.0583 15.1605 48.282 15.44C48.5056 15.701 48.8225 15.8314 49.2325 15.8314Z" fill="#2C3300"/>
<path d="M71.6861 14.853C71.6861 15.5425 71.7327 16.0644 71.8259 16.4185C71.9191 16.754 72.0868 16.9776 72.3291 17.0894C72.5714 17.2013 72.9162 17.2665 73.3635 17.2851V17.9281H66.2347V17.2851C66.5515 17.2665 66.8031 17.2013 66.9895 17.0894C67.1759 16.9776 67.3063 16.754 67.3809 16.4185C67.4554 16.0644 67.4927 15.5425 67.4927 14.853V9.28973C67.4927 8.74925 67.4089 8.31127 67.2411 7.9758C67.0734 7.6217 66.6634 7.44464 66.0111 7.44464C65.657 7.44464 65.2562 7.50055 64.8089 7.61238C64.3803 7.7242 63.8771 7.96648 63.2993 8.33923V14.853C63.2993 15.5425 63.3459 16.0644 63.4391 16.4185C63.5323 16.754 63.7 16.9776 63.9423 17.0894C64.1846 17.2013 64.5294 17.2665 64.9767 17.2851V17.9281H57.8479V17.2851C58.1648 17.2665 58.4164 17.2013 58.6027 17.0894C58.7891 16.9776 58.9196 16.754 58.9941 16.4185C59.0687 16.0644 59.1059 15.5425 59.1059 14.853V8.4231C59.1059 8.14354 59.05 7.95717 58.9382 7.86398C58.845 7.77079 58.6959 7.7242 58.4909 7.7242C58.2673 7.7242 58.0064 7.76147 57.7082 7.83602L57.4286 7.19304L63.2434 4.48131L63.4112 4.64905C63.3739 4.81679 63.3273 5.17089 63.2714 5.71138C63.2341 6.25186 63.2155 6.80166 63.2155 7.36077H63.2993C63.6721 6.93212 64.1101 6.51278 64.6133 6.10276C65.1165 5.69274 65.6756 5.34795 66.2906 5.06839C66.9243 4.78883 67.6046 4.64905 68.3314 4.64905C69.4869 4.64905 70.3349 4.92861 70.8754 5.48773C71.4159 6.02821 71.6861 6.90416 71.6861 8.11558V14.853Z" fill="#2C3300"/>
<path d="M78.3468 24.4977C77.5454 24.4977 76.772 24.4232 76.0265 24.2741C75.2996 24.1436 74.7032 23.8827 74.2373 23.4913C73.7714 23.1186 73.5384 22.5781 73.5384 21.8699C73.5384 21.1989 73.7527 20.5932 74.1814 20.0528C74.6287 19.5309 75.1785 19.1395 75.8308 18.8786L76.4738 18.9904C76.306 19.3632 76.1849 19.7173 76.1104 20.0528C76.0358 20.3882 75.9985 20.6864 75.9985 20.9473C75.9985 21.6742 76.2874 22.2333 76.8652 22.6247C77.4615 23.0347 78.2723 23.2397 79.2973 23.2397C80.2478 23.2397 81.0306 23.0906 81.6456 22.7924C82.2606 22.4942 82.7173 22.1215 83.0155 21.6742C83.3137 21.2455 83.4628 20.8355 83.4628 20.4441C83.4628 20.1459 83.3509 19.8664 83.1273 19.6055C82.9223 19.3445 82.4936 19.1675 81.8413 19.0743L76.1663 18.2077C75.5699 18.1145 75.1412 17.8815 74.8803 17.5088C74.638 17.136 74.5169 16.7074 74.5169 16.2228C74.5169 15.5705 74.7126 14.9368 75.1039 14.3218C75.4953 13.6881 76.0451 13.1476 76.7533 12.7004C75.9147 12.3649 75.2344 11.8896 74.7126 11.2746C74.2094 10.6409 73.9577 9.86749 73.9577 8.95426C73.9577 8.04103 74.2187 7.25827 74.7405 6.60596C75.2624 5.93502 75.9613 5.4225 76.8372 5.06839C77.7318 4.71428 78.7475 4.53723 79.8844 4.53723C81.2822 4.53723 82.475 4.79815 83.4628 5.31999C84.0591 5.24544 84.5437 4.9752 84.9165 4.50927C85.3078 4.0247 85.5035 3.3258 85.5035 2.41258H86.1465C86.6124 2.65486 86.9293 2.94374 87.097 3.27921C87.2647 3.59604 87.3486 3.91288 87.3486 4.22971C87.3486 4.88202 87.097 5.38522 86.5938 5.73933C86.0906 6.0748 85.429 6.2239 84.6089 6.18663C84.9258 6.5221 85.1681 6.91348 85.3358 7.36077C85.5222 7.78943 85.6154 8.26468 85.6154 8.78652C85.6154 9.69975 85.3544 10.4918 84.8326 11.1628C84.3107 11.8151 83.6025 12.3183 82.7079 12.6724C81.8134 13.0265 80.8069 13.2036 79.6887 13.2036C78.9991 13.2036 78.3468 13.1383 77.7318 13.0079C77.4522 13.2502 77.3124 13.5204 77.3124 13.8186C77.3124 13.949 77.3497 14.0795 77.4243 14.21C77.4988 14.3218 77.6665 14.3963 77.9275 14.4336L84.4971 15.44C85.6526 15.6264 86.4447 15.9991 86.8734 16.5583C87.302 17.0987 87.5164 17.6951 87.5164 18.3474C87.5164 18.9811 87.3393 19.6521 86.9852 20.3603C86.6311 21.0871 86.0813 21.7581 85.3358 22.3731C84.5903 23.0068 83.6398 23.5193 82.4843 23.9107C81.3288 24.3021 79.9496 24.4977 78.3468 24.4977ZM79.9124 12.1412C80.5087 12.1412 80.956 11.8617 81.2542 11.3026C81.5524 10.7434 81.7015 9.99795 81.7015 9.06608C81.7015 7.96648 81.5058 7.11849 81.1144 6.5221C80.7417 5.90707 80.2571 5.59955 79.6608 5.59955C79.083 5.59955 78.6357 5.87911 78.3189 6.43823C78.0207 6.99735 77.8716 7.74284 77.8716 8.6747C77.8716 9.75566 78.0673 10.6037 78.4586 11.2187C78.85 11.8337 79.3346 12.1412 79.9124 12.1412Z" fill="#2C3300"/>
<path d="M90.709 18.3474C89.684 18.3474 88.9198 18.0399 88.4166 17.4249C87.932 16.8099 87.6898 16.1017 87.6898 15.3003C87.6898 14.0702 88.2489 13.0731 89.3671 12.309C90.504 11.5448 92.2559 10.8459 94.6228 10.2123V8.73061C94.6228 7.85466 94.4365 7.23031 94.0637 6.85757C93.7096 6.46618 93.2064 6.27049 92.5541 6.27049C91.6595 6.27049 90.914 6.60596 90.3176 7.27691C89.7399 7.94785 89.3392 8.85175 89.1155 9.98863H88.4725V5.96298C89.1062 5.64614 89.9262 5.34795 90.9326 5.06839C91.9577 4.78883 93.0666 4.64905 94.2594 4.64905C97.4837 4.64905 99.0958 5.89775 99.0958 8.39514V14.4895C99.0958 14.9182 99.1517 15.2537 99.2635 15.4959C99.3753 15.7196 99.599 15.8314 99.9344 15.8314C100.121 15.8314 100.326 15.7941 100.549 15.7196C100.792 15.6264 101.043 15.4587 101.304 15.2164L101.752 15.6637C101.342 16.521 100.801 17.164 100.13 17.5926C99.4592 18.0027 98.6951 18.2077 97.8378 18.2077C96.9245 18.2077 96.2163 18.0306 95.7131 17.6765C95.2285 17.3038 94.8838 16.7726 94.6787 16.083H94.6228C94.1942 16.8285 93.6257 17.3969 92.9175 17.7883C92.2093 18.1611 91.4731 18.3474 90.709 18.3474ZM92.8896 15.8314C93.2623 15.8314 93.5885 15.7475 93.868 15.5798C94.1662 15.3934 94.4178 15.1884 94.6228 14.9648V11.3305C93.7655 11.5728 93.1132 11.8896 92.6659 12.281C92.2373 12.6724 91.9484 13.0638 91.7993 13.4552C91.6688 13.8465 91.6036 14.1727 91.6036 14.4336C91.6036 14.825 91.7154 15.1605 91.9391 15.44C92.1627 15.701 92.4795 15.8314 92.8896 15.8314Z" fill="#2C3300"/>
</svg>
